<mxfile host="65bd71144e" pages="2">
    <diagram name="Auth Server" id="KGwXWh2WCgL-QBMXllDs">
        <mxGraphModel dx="827" dy="587" grid="1" gridSize="10" guides="1" tooltips="1" connect="1" arrows="1" fold="1" page="1" pageScale="1" pageWidth="1100" pageHeight="850" math="0" shadow="0">
            <root>
                <mxCell id="0"/>
                <mxCell id="1" parent="0"/>
                <mxCell id="s4llELhhOnGxEJ7iNeQA-8" value="" style="group" parent="1" vertex="1" connectable="0">
                    <mxGeometry x="479.8" y="370" width="130.2" height="85" as="geometry"/>
                </mxCell>
                <mxCell id="w_0BXY6xINT9dtjqePmF-1" value="&lt;b&gt;Summit&lt;/b&gt;&lt;br&gt;Auth Server" style="rounded=0;whiteSpace=wrap;html=1;" parent="s4llELhhOnGxEJ7iNeQA-8" vertex="1">
                    <mxGeometry x="10.199999999999989" y="25" width="120" height="60" as="geometry"/>
                </mxCell>
                <mxCell id="s4llELhhOnGxEJ7iNeQA-1" value="" style="shape=image;verticalLabelPosition=bottom;labelBackgroundColor=default;verticalAlign=top;aspect=fixed;imageAspect=0;image=https://s3-us-west-2.amazonaws.com/s.cdpn.io/66955/gopher.svg;" parent="s4llELhhOnGxEJ7iNeQA-8" vertex="1">
                    <mxGeometry width="30" height="40.54" as="geometry"/>
                </mxCell>
                <mxCell id="s4llELhhOnGxEJ7iNeQA-2" value="gRPC connector" style="rounded=0;whiteSpace=wrap;html=1;" parent="1" vertex="1">
                    <mxGeometry x="444.8" y="445" width="100" height="30" as="geometry"/>
                </mxCell>
                <mxCell id="s4llELhhOnGxEJ7iNeQA-3" value="Some Datastore&lt;br&gt;(&lt;b&gt;TBD&lt;/b&gt;)" style="shape=cylinder3;whiteSpace=wrap;html=1;boundedLbl=1;backgroundOutline=1;size=15;" parent="1" vertex="1">
                    <mxGeometry x="640" y="260" width="60" height="80" as="geometry"/>
                </mxCell>
                <mxCell id="s4llELhhOnGxEJ7iNeQA-4" value="Realmlist port" style="rounded=0;whiteSpace=wrap;html=1;" parent="1" vertex="1">
                    <mxGeometry x="560" y="445" width="90" height="30" as="geometry"/>
                </mxCell>
                <mxCell id="s4llELhhOnGxEJ7iNeQA-9" value="In-memory store&lt;br&gt;(for session keys)" style="rounded=0;whiteSpace=wrap;html=1;" parent="1" vertex="1">
                    <mxGeometry x="520" y="373" width="120" height="30" as="geometry"/>
                </mxCell>
                <mxCell id="s4llELhhOnGxEJ7iNeQA-10" style="edgeStyle=orthogonalEdgeStyle;rounded=0;orthogonalLoop=1;jettySize=auto;html=1;entryX=0.5;entryY=1;entryDx=0;entryDy=0;entryPerimeter=0;dashed=1;" parent="1" source="w_0BXY6xINT9dtjqePmF-1" target="s4llELhhOnGxEJ7iNeQA-3" edge="1">
                    <mxGeometry relative="1" as="geometry"/>
                </mxCell>
                <mxCell id="s4llELhhOnGxEJ7iNeQA-11" value="Account, Realm data" style="edgeLabel;html=1;align=center;verticalAlign=middle;resizable=0;points=[];" parent="s4llELhhOnGxEJ7iNeQA-10" vertex="1" connectable="0">
                    <mxGeometry x="0.05" y="-1" relative="1" as="geometry">
                        <mxPoint x="9" y="6" as="offset"/>
                    </mxGeometry>
                </mxCell>
                <mxCell id="s4llELhhOnGxEJ7iNeQA-12" value="&lt;h1&gt;gRPC&lt;/h1&gt;&lt;p&gt;This connector will be the interface between the realm server and the world server. The world can send info about status (online/offline) and population, etc plus this is the interface to exchange the session key for user authentication&lt;/p&gt;" style="text;html=1;strokeColor=none;fillColor=none;spacing=5;spacingTop=-20;whiteSpace=wrap;overflow=hidden;rounded=0;" parent="1" vertex="1">
                    <mxGeometry x="340" y="445" width="190" height="165" as="geometry"/>
                </mxCell>
                <mxCell id="s4llELhhOnGxEJ7iNeQA-15" value="&lt;h1&gt;Auth Server&lt;/h1&gt;&lt;p&gt;This server handles the incoming connections from the world, authenticates the user with user/password then provides a world server (realm list) to the WoW client&lt;/p&gt;" style="text;html=1;strokeColor=none;fillColor=none;spacing=5;spacingTop=-20;whiteSpace=wrap;overflow=hidden;rounded=0;" parent="1" vertex="1">
                    <mxGeometry x="430" y="202.5" width="190" height="140" as="geometry"/>
                </mxCell>
            </root>
        </mxGraphModel>
    </diagram>
    <diagram id="522fqKkotshF5ZuAOnyK" name="World Server">
        <mxGraphModel dx="827" dy="587" grid="1" gridSize="10" guides="1" tooltips="1" connect="1" arrows="1" fold="1" page="1" pageScale="1" pageWidth="1100" pageHeight="850" math="0" shadow="0">
            <root>
                <mxCell id="0"/>
                <mxCell id="1" parent="0"/>
                <mxCell id="xUT12405d4P-PjV2gOui-1" value="" style="group" parent="1" vertex="1" connectable="0">
                    <mxGeometry x="485" y="383" width="130.2" height="85" as="geometry"/>
                </mxCell>
                <mxCell id="xUT12405d4P-PjV2gOui-2" value="&lt;b&gt;Summit&lt;/b&gt;&lt;br&gt;World Server" style="rounded=0;whiteSpace=wrap;html=1;" parent="xUT12405d4P-PjV2gOui-1" vertex="1">
                    <mxGeometry x="10.199999999999989" y="25" width="120" height="60" as="geometry"/>
                </mxCell>
                <mxCell id="xUT12405d4P-PjV2gOui-3" value="" style="shape=image;verticalLabelPosition=bottom;labelBackgroundColor=default;verticalAlign=top;aspect=fixed;imageAspect=0;image=https://s3-us-west-2.amazonaws.com/s.cdpn.io/66955/gopher.svg;" parent="xUT12405d4P-PjV2gOui-1" vertex="1">
                    <mxGeometry width="30" height="40.54" as="geometry"/>
                </mxCell>
            </root>
        </mxGraphModel>
    </diagram>
    <diagram id="6FEmoBfq8rw_FH7os6ej" name="Serworm">
        <mxGraphModel dx="827" dy="587" grid="1" gridSize="10" guides="1" tooltips="1" connect="1" arrows="1" fold="1" page="1" pageScale="1" pageWidth="850" pageHeight="1100" math="0" shadow="0">
            <root>
                <mxCell id="0"/>
                <mxCell id="1" parent="0"/>
                <mxCell id="48C72VgjGNs3C1DaSSft-1" value="&lt;h1&gt;Serworm&lt;/h1&gt;&lt;p&gt;The serworm (as the name describes it) is a worm which authenticates against the server then decrypt and then re-encrypt your packet data transferred by the client/server to introspect the packets in real-time&amp;nbsp;&lt;/p&gt;" style="text;html=1;strokeColor=none;fillColor=none;spacing=5;spacingTop=-20;whiteSpace=wrap;overflow=hidden;rounded=0;" vertex="1" parent="1">
                    <mxGeometry x="140" y="50" width="310" height="120" as="geometry"/>
                </mxCell>
                <mxCell id="48C72VgjGNs3C1DaSSft-14" value="" style="edgeStyle=none;html=1;" edge="1" parent="1" source="48C72VgjGNs3C1DaSSft-2" target="48C72VgjGNs3C1DaSSft-12">
                    <mxGeometry relative="1" as="geometry"/>
                </mxCell>
                <mxCell id="48C72VgjGNs3C1DaSSft-2" value="Serworm Auth&lt;br&gt;(localhost:5000)" style="rounded=0;whiteSpace=wrap;html=1;" vertex="1" parent="1">
                    <mxGeometry x="220" y="320" width="120" height="60" as="geometry"/>
                </mxCell>
                <mxCell id="48C72VgjGNs3C1DaSSft-4" style="edgeStyle=none;html=1;" edge="1" parent="1" source="48C72VgjGNs3C1DaSSft-3" target="48C72VgjGNs3C1DaSSft-2">
                    <mxGeometry relative="1" as="geometry"/>
                </mxCell>
                <mxCell id="48C72VgjGNs3C1DaSSft-16" style="edgeStyle=none;html=1;entryX=0.25;entryY=1;entryDx=0;entryDy=0;" edge="1" parent="1" source="48C72VgjGNs3C1DaSSft-3" target="48C72VgjGNs3C1DaSSft-12">
                    <mxGeometry relative="1" as="geometry">
                        <Array as="points">
                            <mxPoint x="125" y="440"/>
                            <mxPoint x="441" y="440"/>
                        </Array>
                    </mxGeometry>
                </mxCell>
                <mxCell id="48C72VgjGNs3C1DaSSft-17" value="Auth with fake realm" style="edgeLabel;html=1;align=center;verticalAlign=middle;resizable=0;points=[];" vertex="1" connectable="0" parent="48C72VgjGNs3C1DaSSft-16">
                    <mxGeometry x="0.0725" y="1" relative="1" as="geometry">
                        <mxPoint as="offset"/>
                    </mxGeometry>
                </mxCell>
                <mxCell id="48C72VgjGNs3C1DaSSft-3" value="WoW Client" style="shape=umlActor;verticalLabelPosition=bottom;verticalAlign=top;html=1;outlineConnect=0;" vertex="1" parent="1">
                    <mxGeometry x="110" y="320" width="30" height="60" as="geometry"/>
                </mxCell>
                <mxCell id="48C72VgjGNs3C1DaSSft-10" style="edgeStyle=none;html=1;entryX=0.5;entryY=0;entryDx=0;entryDy=0;" edge="1" parent="1" source="48C72VgjGNs3C1DaSSft-6" target="48C72VgjGNs3C1DaSSft-2">
                    <mxGeometry relative="1" as="geometry"/>
                </mxCell>
                <mxCell id="48C72VgjGNs3C1DaSSft-6" value="Original Server's Logon Server" style="rounded=0;whiteSpace=wrap;html=1;" vertex="1" parent="1">
                    <mxGeometry x="220" y="200" width="120" height="60" as="geometry"/>
                </mxCell>
                <mxCell id="48C72VgjGNs3C1DaSSft-7" value="Realm #1" style="rounded=0;whiteSpace=wrap;html=1;" vertex="1" parent="1">
                    <mxGeometry x="390" y="200" width="130" height="30" as="geometry"/>
                </mxCell>
                <mxCell id="48C72VgjGNs3C1DaSSft-8" value="Realm #2" style="rounded=0;whiteSpace=wrap;html=1;" vertex="1" parent="1">
                    <mxGeometry x="400" y="220" width="130" height="30" as="geometry"/>
                </mxCell>
                <mxCell id="48C72VgjGNs3C1DaSSft-18" value="Encrypted&lt;br&gt;Connection" style="edgeStyle=none;html=1;entryX=0.75;entryY=0;entryDx=0;entryDy=0;exitX=0.75;exitY=1;exitDx=0;exitDy=0;" edge="1" parent="1" source="48C72VgjGNs3C1DaSSft-9" target="48C72VgjGNs3C1DaSSft-12">
                    <mxGeometry x="-0.0194" y="20" relative="1" as="geometry">
                        <mxPoint as="offset"/>
                    </mxGeometry>
                </mxCell>
                <mxCell id="48C72VgjGNs3C1DaSSft-9" value="Realm #3" style="rounded=0;whiteSpace=wrap;html=1;" vertex="1" parent="1">
                    <mxGeometry x="410" y="240" width="130" height="30" as="geometry"/>
                </mxCell>
                <mxCell id="48C72VgjGNs3C1DaSSft-15" value="Auth challenge" style="edgeStyle=none;html=1;entryX=0.4;entryY=0.984;entryDx=0;entryDy=0;entryPerimeter=0;startArrow=classic;startFill=1;" edge="1" parent="1" source="48C72VgjGNs3C1DaSSft-12" target="48C72VgjGNs3C1DaSSft-9">
                    <mxGeometry x="0.1704" y="18" relative="1" as="geometry">
                        <Array as="points"/>
                        <mxPoint as="offset"/>
                    </mxGeometry>
                </mxCell>
                <mxCell id="48C72VgjGNs3C1DaSSft-21" value="" style="edgeStyle=none;html=1;fillColor=#a20025;strokeColor=#6F0000;strokeWidth=2;" edge="1" parent="1" source="48C72VgjGNs3C1DaSSft-12" target="48C72VgjGNs3C1DaSSft-20">
                    <mxGeometry relative="1" as="geometry"/>
                </mxCell>
                <mxCell id="48C72VgjGNs3C1DaSSft-12" value="Spawn fake realms" style="rounded=0;whiteSpace=wrap;html=1;" vertex="1" parent="1">
                    <mxGeometry x="405" y="335" width="145" height="30" as="geometry"/>
                </mxCell>
                <mxCell id="48C72VgjGNs3C1DaSSft-20" value="Custom packet introspection" style="rounded=0;whiteSpace=wrap;html=1;" vertex="1" parent="1">
                    <mxGeometry x="630" y="335" width="145" height="30" as="geometry"/>
                </mxCell>
            </root>
        </mxGraphModel>
    </diagram>
</mxfile>